<svg width="16" height="16" viewBox="0 0 16 16" fill="none" xmlns="http://www.w3.org/2000/svg">
<path fill-rule="evenodd" clip-rule="evenodd" d="M14.5 13.5H1.5C1.22386 13.5 1 13.2761 1 13V6C1 5.72386 1.22386 5.5 1.5 5.5H14.5C14.7761 5.5 15 5.72386 15 6V13C15 13.2761 14.7761 13.5 14.5 13.5ZM1.5 14.5C0.671573 14.5 0 13.8284 0 13V6C0 5.17157 0.671573 4.5 1.5 4.5H14.5C15.3284 4.5 16 5.17157 16 6V13C16 13.8284 15.3284 14.5 14.5 14.5H1.5Z" fill="#616161"/>
<path fill-rule="evenodd" clip-rule="evenodd" d="M2 3C2 3.27614 2.22386 3.5 2.5 3.5H13.5C13.7761 3.5 14 3.27614 14 3C14 2.72386 13.7761 2.5 13.5 2.5H2.5C2.22386 2.5 2 2.72386 2 3ZM4 1C4 1.27614 4.22386 1.5 4.5 1.5H11.5C11.7761 1.5 12 1.27614 12 1C12 0.723858 11.7761 0.5 11.5 0.5H4.5C4.22386 0.5 4 0.723858 4 1Z" fill="#616161"/>
<path fill-rule="evenodd" clip-rule="evenodd" d="M6.25762 6.56268C6.41659 6.47457 6.61087 6.47967 6.765 6.576L10.765 9.076C10.9112 9.16737 11 9.32761 11 9.5C11 9.6724 10.9112 9.83263 10.765 9.924L6.765 12.424C6.61087 12.5203 6.41659 12.5254 6.25762 12.4373C6.09864 12.3492 6 12.1818 6 12V7C6 6.81824 6.09864 6.65079 6.25762 6.56268Z" fill="#616161"/>
</svg>
